<?xml version="1.0" encoding="UTF-8" standalone="no"?>
<!-- Created with Inkscape (http://www.inkscape.org/) -->

<svg
   width="128"
   height="128"
   viewBox="0 0 33.866667 33.866667"
   version="1.1"
   id="svg1"
   inkscape:version="1.3 (0e150ed6c4, 2023-07-21)"
   sodipodi:docname="icon.svg"
   xmlns:inkscape="http://www.inkscape.org/namespaces/inkscape"
   xmlns:sodipodi="http://sodipodi.sourceforge.net/DTD/sodipodi-0.dtd"
   xmlns="http://www.w3.org/2000/svg"
   xmlns:svg="http://www.w3.org/2000/svg">
  <sodipodi:namedview
     id="namedview1"
     pagecolor="#ffffff"
     bordercolor="#111111"
     borderopacity="1"
     inkscape:showpageshadow="0"
     inkscape:pageopacity="0"
     inkscape:pagecheckerboard="1"
     inkscape:deskcolor="#d1d1d1"
     inkscape:document-units="mm"
     inkscape:zoom="2.8970539"
     inkscape:cx="63.512799"
     inkscape:cy="16.395967"
     inkscape:window-width="1920"
     inkscape:window-height="1009"
     inkscape:window-x="1912"
     inkscape:window-y="-8"
     inkscape:window-maximized="1"
     inkscape:current-layer="layer1" />
  <defs
     id="defs1" />
  <g
     inkscape:label="Layer 1"
     inkscape:groupmode="layer"
     id="layer1">
    <path
       id="text1"
       style="font-style:normal;font-variant:normal;font-weight:normal;font-stretch:normal;font-size:49.7624px;font-family:Dhurjati;-inkscape-font-specification:Dhurjati;letter-spacing:0px;fill:#000000;fill-opacity:1;stroke-width:6.53048;paint-order:stroke fill markers"
       d="M 4.7206421 4.7609497 L 4.7206421 6.7091512 L 4.7206421 14.315922 L 5.268929 14.167094 L 5.268929 17.322457 L 10.628292 18.769914 L 10.628292 16.994828 L 11.612211 19.033464 L 10.628292 18.769914 L 11.5533 20.671606 L 12.231295 20.280416 L 14.409456 24.756628 L 20.186365 24.756628 L 21.623486 21.738725 L 22.355225 21.936646 L 24.851713 16.653764 L 24.851713 22.581567 L 24.190255 22.404317 L 24.190255 28.532109 L 29.738236 28.532109 L 29.738236 23.930322 L 30.267403 24.072949 L 30.267403 10.562146 L 29.611629 10.944035 L 29.611629 5.4596151 L 24.140129 5.4596151 L 18.386991 17.490405 L 19.031913 17.115234 L 18.096053 19.073254 L 17.564819 17.953426 L 16.902844 18.337899 L 13.824479 11.845789 L 14.12937 11.763106 L 10.809159 4.7609497 L 8.0682414 4.7609497 L 4.7206421 4.7609497 z M 4.1284302 17.028418 L 4.1284302 24.958683 L 4.8002238 24.570593 L 4.8002238 28.532109 L 10.290845 28.532109 L 10.290845 21.384224 L 9.6190511 21.772314 L 9.6190511 18.499646 L 4.1284302 17.028418 z " />
  </g>
</svg>
